<svg width="11" height="10" viewBox="0 0 11 10" fill="none" xmlns="http://www.w3.org/2000/svg">
<g clip-path="url(#clip0_9_318)">
<path d="M8.1654 2.44025H4.11367C3.53913 2.44025 3.07336 2.90601 3.07336 3.48056V7.53228C3.07336 8.10683 3.53913 8.57259 4.11367 8.57259H8.1654C8.73995 8.57259 9.20571 8.10683 9.20571 7.53228V3.48056C9.20571 2.90601 8.73995 2.44025 8.1654 2.44025Z" stroke="black" stroke-width="0.584033" stroke-linejoin="round"/>
<path d="M7.73638 2.44028L7.7455 2.00225C7.74473 1.73142 7.63681 1.47191 7.4453 1.2804C7.25379 1.08889 6.99428 0.980965 6.72345 0.980194H2.78122C2.47172 0.981109 2.17515 1.10447 1.95629 1.32332C1.73743 1.54218 1.61407 1.83875 1.61316 2.14826V6.09048C1.61393 6.36131 1.72186 6.62083 1.91336 6.81233C2.10487 7.00384 2.36439 7.11177 2.63522 7.11254H3.07324" stroke="black" stroke-width="0.584033" stroke-linecap="round" stroke-linejoin="round"/>
</g>
<defs>
<clipPath id="clip0_9_318">
<rect width="9.34453" height="9.34453" fill="white" transform="translate(0.736328 0.104034)"/>
</clipPath>
</defs>
</svg>
