<svg width="19" height="19" viewBox="0 0 19 19" fill="none" xmlns="http://www.w3.org/2000/svg">
<path d="M15.8828 8.31256H10.6875C10.2151 8.31256 9.76201 8.12489 9.42797 7.79085C9.09392 7.4568 8.90625 7.00373 8.90625 6.53131V1.336C8.90625 1.29663 8.89061 1.25887 8.86277 1.23104C8.83494 1.2032 8.79718 1.18756 8.75781 1.18756H5.34375C4.71386 1.18756 4.10977 1.43778 3.66437 1.88318C3.21897 2.32858 2.96875 2.93267 2.96875 3.56256V15.4376C2.96875 16.0675 3.21897 16.6715 3.66437 17.1169C4.10977 17.5623 4.71386 17.8126 5.34375 17.8126H13.6562C14.2861 17.8126 14.8902 17.5623 15.3356 17.1169C15.781 16.6715 16.0312 16.0675 16.0312 15.4376V8.461C16.0312 8.42163 16.0156 8.38387 15.9878 8.35604C15.9599 8.3282 15.9222 8.31256 15.8828 8.31256Z" fill="white"/>
<path d="M15.557 6.99848L10.2203 1.66178C10.2099 1.65146 10.1967 1.64445 10.1824 1.64161C10.168 1.63877 10.1531 1.64024 10.1396 1.64583C10.1261 1.65142 10.1145 1.66089 10.1064 1.67303C10.0982 1.68518 10.0938 1.69947 10.0938 1.7141V6.53127C10.0938 6.68875 10.1563 6.83977 10.2677 6.95112C10.379 7.06247 10.53 7.12502 10.6875 7.12502H15.5047C15.5193 7.12496 15.5336 7.12058 15.5457 7.11242C15.5579 7.10426 15.5674 7.09269 15.5729 7.07916C15.5785 7.06564 15.58 7.05077 15.5772 7.03641C15.5743 7.02205 15.5673 7.00886 15.557 6.99848Z" fill="white"/>
</svg>
