<svg width="19" height="19" viewBox="0 0 19 19" fill="none" xmlns="http://www.w3.org/2000/svg">
<g clip-path="url(#clip0_4_677)">
<path d="M1.91584 3.70333L7.8793 10.6494C7.96847 10.7519 8.01802 10.8828 8.01897 11.0186V15.2378C8.01839 15.2969 8.03651 15.3547 8.07074 15.4029C8.10497 15.4511 8.15356 15.4872 8.20956 15.5061L11.0437 16.4492C11.086 16.4634 11.1311 16.4672 11.1753 16.4605C11.2195 16.4537 11.2614 16.4365 11.2975 16.4103C11.3337 16.3841 11.3631 16.3496 11.3833 16.3098C11.4034 16.2699 11.4138 16.2258 11.4135 16.1812V11.0186C11.415 10.8826 11.4652 10.7516 11.555 10.6494L17.5167 3.70333C17.5783 3.63152 17.6181 3.54354 17.6313 3.44982C17.6445 3.3561 17.6305 3.26056 17.5911 3.17453C17.5516 3.0885 17.4883 3.01557 17.4087 2.9644C17.3291 2.91323 17.2365 2.88595 17.1418 2.8858H2.29242C2.19762 2.88561 2.10477 2.91265 2.02489 2.96368C1.94501 3.01472 1.88146 3.08763 1.8418 3.17373C1.80214 3.25983 1.78803 3.3555 1.80115 3.44938C1.81428 3.54327 1.85408 3.63141 1.91584 3.70333Z" stroke="black" stroke-width="1.13152" stroke-linecap="round" stroke-linejoin="round"/>
</g>
<defs>
<clipPath id="clip0_4_677">
<rect width="18.1043" height="18.1043" fill="white" transform="translate(0.664062 0.622742)"/>
</clipPath>
</defs>
</svg>
