<svg width="12" height="7" viewBox="0 0 12 7" fill="none" xmlns="http://www.w3.org/2000/svg">
<path d="M4.62276 6.18529H3.13778C2.47049 6.18529 1.83054 5.91851 1.35869 5.44364C0.886845 4.96878 0.621765 4.32472 0.621765 3.65316C0.621765 2.9816 0.886845 2.33754 1.35869 1.86268C1.83054 1.38781 2.47049 1.12103 3.13778 1.12103H4.59M7.55628 1.12103H9.0085C9.67579 1.12103 10.3157 1.38781 10.7876 1.86268C11.2594 2.33754 11.5245 2.9816 11.5245 3.65316C11.5245 4.32472 11.2594 4.96878 10.7876 5.44364C10.3157 5.91851 9.67579 6.18529 9.0085 6.18529H7.52352M3.79483 3.65316H8.40387" stroke="black" stroke-width="0.836145" stroke-linecap="round" stroke-linejoin="round"/>
</svg>
